<?xml version="1.0" encoding="UTF-8" standalone="no"?>
<!-- Created with Inkscape (http://www.inkscape.org/) -->

<svg
   width="200"
   height="50"
   viewBox="0 0 52.916616 13.229166"
   version="1.1"
   id="svg5"
   inkscape:version="1.1 (c68e22c387, 2021-05-23)"
   sodipodi:docname="logo.svg"
   xmlns:inkscape="http://www.inkscape.org/namespaces/inkscape"
   xmlns:sodipodi="http://sodipodi.sourceforge.net/DTD/sodipodi-0.dtd"
   xmlns="http://www.w3.org/2000/svg"
   xmlns:svg="http://www.w3.org/2000/svg">
  <sodipodi:namedview
     id="namedview7"
     pagecolor="#ffffff"
     bordercolor="#666666"
     borderopacity="1.0"
     inkscape:pageshadow="2"
     inkscape:pageopacity="0.0"
     inkscape:pagecheckerboard="0"
     inkscape:document-units="mm"
     showgrid="false"
     inkscape:zoom="0.70710679"
     inkscape:cx="161.92745"
     inkscape:cy="258.09397"
     inkscape:window-width="2560"
     inkscape:window-height="1017"
     inkscape:window-x="-8"
     inkscape:window-y="-8"
     inkscape:window-maximized="1"
     inkscape:current-layer="layer1"
     units="px"
     width="49px" />
  <defs
     id="defs2" />
  <g
     inkscape:label="Layer 1"
     inkscape:groupmode="layer"
     id="layer1">
    <path
       style="color:#000000;fill:#0082ca;fill-opacity:1;stroke-width:0.05246;-inkscape-stroke:none"
       d="M 8.1628134,9.7949462 C 5.9614194,9.6825302 3.9238592,8.7240992 3.3372335,7.5250782 2.9328602,6.6985692 3.1085373,5.9435151 3.8818413,5.1843741 c 0.2344135,-0.23012 0.5641254,-0.485571 0.7942509,-0.615361 2.1385832,-1.206154 5.5971758,-1.305252 7.9019328,-0.22641 l 0.407332,0.190668 -0.339098,0.186911 c -0.186503,0.102802 -1.761421,0.924571 -3.4998186,1.8261531 -1.738397,0.901581 -3.160722,1.6575 -3.160722,1.679817 0,0.08191 0.759574,0.32216 1.442654,0.456313 0.65781,0.129192 2.332346,0.129673 2.9612596,9.5e-4 1.449045,-0.296808 2.473838,-0.854385 2.853967,-1.552808 0.18535,-0.340549 0.230518,-0.735784 0.120255,-1.0522651 -0.04484,-0.128713 -0.07668,-0.237369 -0.07074,-0.241461 0.0059,-0.0041 0.182809,-0.10689 0.393051,-0.228443 l 0.382258,-0.221 0.102477,0.121471 c 0.173393,0.205536 0.367125,0.64057 0.412176,0.9255621 0.09445,0.597479 -0.127026,1.187009 -0.643798,1.713692 -1.148734,1.170763 -3.268025,1.774976 -5.7764626,1.64688 z m -0.05471,-3.7275581 c 1.732422,-0.81273 3.1705666,-1.495618 3.1958766,-1.517524 0.08996,-0.07787 -0.858667,-0.284922 -1.6722816,-0.364998 -1.414657,-0.139228 -3.082394,0.163055 -4.094517,0.742149 -0.7920368,0.453168 -1.239958,1.113939 -1.1584119,1.7088831 0.046665,0.340454 0.3712076,0.909181 0.5188221,0.909181 0.033359,0 1.4780898,-0.66496 3.2105118,-1.4776911 z"
       id="path182-29"
       sodipodi:nodetypes="csssscsssscsscscsssccsssssss" />
    <path
       style="color:#000000;fill:#0082ca;fill-opacity:1;stroke-width:0.05246;-inkscape-stroke:none"
       d="m 29.747,6.3666341 v -2.911537 h 0.28853 0.288531 v 2.911537 2.911535 H 30.03553 29.747 Z"
       id="path182-2"
       sodipodi:nodetypes="cccsccccc" />
    <path
       style="color:#000000;fill:#0082ca;fill-opacity:1;stroke-width:0.05246;-inkscape-stroke:none"
       d="m 32.455148,9.2826821 c -0.993246,-0.36836 -1.618032,-1.406776 -1.447036,-2.405034 0.20755,-1.211671 1.345993,-2.056106 2.491854,-1.848321 0.637667,0.115631 1.295892,0.579803 1.562068,1.101549 0.06319,0.123866 0.103964,0.236545 0.103964,0.236545 0,0 -0.04114,0.02866 -0.06655,0.04725 -0.04301,0.03145 -0.788766,0.422593 -1.657239,0.86921 -0.868474,0.446618 -1.579568,0.83691 -1.58021,0.867316 -0.0019,0.08925 0.320557,0.371463 0.575898,0.504055 0.363701,0.188862 1.001009,0.202642 1.378531,0.0298 0.155669,-0.07127 0.372223,-0.218766 0.481229,-0.327772 0.219245,-0.219245 0.37763,-0.355807 0.444211,-0.866854 l 0.0089,-0.114589 0.294328,-0.144276 0.291383,-0.146623 c 0,0 0.0015,0.198923 -0.02204,0.393993 -0.08705,0.725306 -0.571878,1.394564 -1.235879,1.70601 -0.307608,0.144283 -0.34307,0.189049 -0.774387,0.202736 -0.390883,0.01241 -0.636294,-0.0261 -0.849065,-0.105001 z m 1.333596,-2.813759 c 0.324598,-0.167085 0.590176,-0.322601 0.590176,-0.345589 0,-0.02299 -0.07802,-0.10131 -0.173383,-0.174045 -0.845081,-0.644573 -2.028928,-0.39782 -2.476065,0.516096 -0.144598,0.295548 -0.220908,0.765719 -0.162227,0.999529 l 0.03489,0.139002 0.798219,-0.415602 c 0.439018,-0.22858 1.063794,-0.552306 1.388392,-0.719391 z"
       id="path182-5"
       sodipodi:nodetypes="sssscsssssscccccscsssscsscss" />
    <path
       style="color:#000000;font-variation-settings:normal;opacity:1;vector-effect:none;fill:#0082ca;fill-opacity:1;stroke-width:0.05246;stroke-linecap:butt;stroke-linejoin:miter;stroke-miterlimit:4;stroke-dasharray:none;stroke-dashoffset:0;stroke-opacity:1;-inkscape-stroke:none;stop-color:#000000;stop-opacity:1"
       d="m 37.532773,9.2970851 c -1.208727,-0.324815 -1.932506,-1.724397 -1.4852,-2.871951 0.329292,-0.844789 1.17677,-1.450602 2.029261,-1.450602 0.521117,0 1.239594,0.285969 1.493922,0.594609 0.04288,0.05203 0.111758,0.115451 0.111758,0.115451 l 0.0012,-0.318579 -0.0019,-0.288529 0.310217,0.0019 h 0.320071 l -4.77e-4,0.249186 4.77e-4,2.100374 9.5e-4,1.849219 -0.286967,-0.0019 h -0.290903 v -0.28853 c 0,-0.158693 -0.0024,-0.390769 -0.0024,-0.390769 -0.528728,0.734279 -1.548643,0.860369 -2.19964,0.700121 z m 1.137767,-0.604564 c 1.047032,-0.384864 1.373901,-1.764925 0.617326,-2.60641 -0.336875,-0.37469 -0.75773,-0.551623 -1.250473,-0.52572 -1.30398,0.06854 -1.976628,1.459921 -1.241979,2.569038 0.391763,0.591456 1.165692,0.823864 1.875126,0.563092 z"
       id="path182-7"
       sodipodi:nodetypes="csssccccccccccscccsssss" />
    <path
       style="color:#000000;font-variation-settings:normal;vector-effect:none;fill:#0082ca;fill-opacity:1;stroke-width:0.05246;stroke-linecap:butt;stroke-linejoin:miter;stroke-miterlimit:4;stroke-dasharray:none;stroke-dashoffset:0;stroke-opacity:1;-inkscape-stroke:none;stop-color:#000000"
       d="m 45.045907,5.9142471 c -0.351718,-0.605383 -0.984236,-0.935795 -1.804003,-0.939715 -0.745497,0.0042 -1.182272,0.09757 -1.671137,0.678537 v -0.575585 l -0.611869,0.0019 -9.51e-4,4.198779 0.612823,-0.0019 v -2.091952 c 0,-1.209339 0.787877,-1.614077 1.662825,-1.62392 0.611731,0.01624 1.058549,0.204687 1.31003,0.625222"
       id="path182-7-3"
       sodipodi:nodetypes="cccccccccc" />
    <path
       style="color:#000000;font-variation-settings:normal;vector-effect:none;fill:#0082ca;fill-opacity:1;stroke-width:0.05246;stroke-linecap:butt;stroke-linejoin:miter;stroke-miterlimit:4;stroke-dasharray:none;stroke-dashoffset:0;stroke-opacity:1;-inkscape-stroke:none;stop-color:#000000"
       d="m 50.021767,7.1843111 c 0,-1.574616 -0.831464,-2.209779 -2.162073,-2.209779 -0.863944,0 -1.439939,0.428572 -1.60568,0.71006 l 7.15e-4,-0.607108 c -0.210108,0.0021 -0.420219,0.0019 -0.630335,0.0019 l -9.5e-4,4.196879 c 0.21043,-6e-6 0.420858,-6e-6 0.631288,-6e-6 v -2.091952 c 0.03206,-0.977022 0.672806,-1.623921 1.64436,-1.623921 1.06488,0 1.54493,0.57253 1.54493,1.624007 v 2.091872 h 0.577618 z"
       id="path182-7-3-3"
       sodipodi:nodetypes="ccccccccccccc" />
    <path
       style="color:#000000;fill:#0082ca;fill-opacity:1;stroke-width:0.05246;-inkscape-stroke:none"
       d="m 17.754037,9.2826821 c -0.993247,-0.36836 -1.61803,-1.406776 -1.447035,-2.405034 0.20755,-1.211671 1.345992,-2.056106 2.491853,-1.848321 0.637667,0.115631 1.295893,0.579803 1.562069,1.101549 0.06319,0.123866 0.103962,0.236545 0.103962,0.236545 0,0 -0.04114,0.02866 -0.06655,0.04725 -0.04301,0.03145 -0.788766,0.422593 -1.65724,0.86921 -0.868473,0.446618 -1.579567,0.83691 -1.580208,0.867316 -0.0019,0.08925 0.320557,0.371463 0.575896,0.504055 0.363703,0.188862 1.00101,0.202642 1.378533,0.0298 0.155669,-0.07127 0.372222,-0.218766 0.481229,-0.327772 0.219244,-0.219245 0.37763,-0.355807 0.444211,-0.866854 l 0.0089,-0.114589 0.294327,-0.144276 0.291381,-0.146623 c 0,0 0.0014,0.198923 -0.02204,0.393993 -0.08705,0.725306 -0.571877,1.394564 -1.235877,1.70601 -0.307609,0.144283 -0.34307,0.189049 -0.774387,0.202736 -0.390883,0.01241 -0.636295,-0.0261 -0.849065,-0.105001 z m 1.333596,-2.813759 c 0.324597,-0.167085 0.590177,-0.322601 0.590177,-0.345589 0,-0.02299 -0.07802,-0.10131 -0.173384,-0.174045 -0.84508,-0.644573 -2.028927,-0.39782 -2.476065,0.516096 -0.144597,0.295548 -0.220907,0.765719 -0.162226,0.999529 l 0.03489,0.139002 0.798217,-0.415602 c 0.439019,-0.22858 1.063796,-0.552306 1.388393,-0.719391 z"
       id="path182-59"
       sodipodi:nodetypes="sssscsssssscccccscsscscsscssc" />
    <path
       style="color:#000000;fill:#0082ca;fill-opacity:1;stroke-width:0.05246;-inkscape-stroke:none"
       d="m 26.236595,9.2970851 c -1.208727,-0.324815 -1.932506,-1.724397 -1.485198,-2.871951 0.329292,-0.844789 1.176768,-1.4506021 2.029263,-1.4506021 0.521114,0 1.239588,0.2859691 1.493916,0.5946091 0.04288,0.05203 0.111759,0.115451 0.111759,0.115451 l 0.0012,-0.318579 -0.0019,-0.288529 0.310215,0.0019 h 0.320065 l -4.76e-4,0.249186 4.76e-4,2.100374 7.15e-4,1.849219 -0.286962,-0.0019 h -0.290904 v -0.28853 c 0,-0.158693 -0.0024,-0.390769 -0.0024,-0.390769 0,0 -0.14001,0.161631 -0.208206,0.234221 -0.427888,0.455467 -1.284493,0.65587 -1.991428,0.4659 z m 1.137767,-0.604564 c 1.04703,-0.384864 1.373894,-1.764925 0.617327,-2.60641 -0.336877,-0.37469 -0.757728,-0.551623 -1.250471,-0.52572 -1.30398,0.06854 -1.97663,1.459921 -1.241981,2.569038 0.391765,0.591456 1.165692,0.823864 1.875125,0.563092 z"
       id="path182-9"
       sodipodi:nodetypes="sssccccccccccscsccscsssc" />
    <path
       style="color:#000000;fill:#0082ca;fill-opacity:1;stroke-width:0.05246;-inkscape-stroke:none"
       d="m 20.661112,9.2106871 c 0.438792,-0.554763 1.539036,-1.994264 1.548453,-2.025913 0.0069,-0.02321 -0.323841,-0.480898 -0.734997,-1.017075 -0.411156,-0.536176 -0.747086,-1.035401 -0.747086,-1.035401 0,0 0.139213,-4.77e-4 0.309936,-4.77e-4 h 0.310406 l 0.356025,0.459025 c 0.195813,0.252465 0.482607,0.619057 0.637321,0.814649 l 0.281296,0.355623 0.653449,-0.814648 0.65345,-0.814649 h 0.344202 0.344202 l -0.336641,0.432797 c -0.185152,0.238036 -0.529399,0.680669 -0.764995,0.983625 -0.235595,0.302959 -0.428192,0.57444 -0.427993,0.603291 2.11e-4,0.02886 0.356394,0.512798 0.791544,1.075433 l 0.794469,1.049287 -0.33858,7.14e-4 -0.349669,-0.0012 c 0,0 -0.359303,-0.453051 -0.690131,-0.886241 -0.330829,-0.433188 -0.625114,-0.787269 -0.653967,-0.786845 -0.02886,4.77e-4 -0.342593,0.377118 -0.6972,0.837096 l -0.644738,0.836325 h -0.345312 c -0.187521,0 -0.346373,4.77e-4 -0.346373,4.77e-4 l 0.05293,-0.06607 z"
       id="path182-57"
       sodipodi:nodetypes="sscscsscccccsscccccscscscccs" />
  </g>
</svg>
